<svg xmlns="http://www.w3.org/2000/svg" width="36" height="36" viewBox="0 0 36 36" fill="none">
<path d="M24.75 35.4375H11.25C11.1008 35.4375 10.9577 35.3782 10.8523 35.2727C10.7468 35.1673 10.6875 35.0242 10.6875 34.875C10.6875 34.7258 10.7468 34.5827 10.8523 34.4773C10.9577 34.3718 11.1008 34.3125 11.25 34.3125H24.75C24.8992 34.3125 25.0423 34.3718 25.1477 34.4773C25.2532 34.5827 25.3125 34.7258 25.3125 34.875C25.3125 35.0242 25.2532 35.1673 25.1477 35.2727C25.0423 35.3782 24.8992 35.4375 24.75 35.4375ZM29.8125 1.6875H6.1875C6.03832 1.6875 5.89524 1.74676 5.78975 1.85225C5.68426 1.95774 5.625 2.10082 5.625 2.25V6.1875H30.375V2.25C30.375 2.10082 30.3157 1.95774 30.2102 1.85225C30.1048 1.74676 29.9617 1.6875 29.8125 1.6875ZM17.4375 4.5H7.875C7.72582 4.5 7.58274 4.44074 7.47725 4.33525C7.37176 4.22976 7.3125 4.08668 7.3125 3.9375C7.3125 3.78832 7.37176 3.64524 7.47725 3.53975C7.58274 3.43426 7.72582 3.375 7.875 3.375H17.4375C17.5867 3.375 17.7298 3.43426 17.8352 3.53975C17.9407 3.64524 18 3.78832 18 3.9375C18 4.08668 17.9407 4.22976 17.8352 4.33525C17.7298 4.44074 17.5867 4.5 17.4375 4.5ZM20.8125 5.0625C20.59 5.0625 20.3725 4.99652 20.1875 4.8729C20.0025 4.74929 19.8583 4.57359 19.7731 4.36802C19.688 4.16245 19.6657 3.93625 19.7091 3.71802C19.7525 3.49979 19.8597 3.29934 20.017 3.142C20.1743 2.98467 20.3748 2.87752 20.593 2.83412C20.8113 2.79071 21.0375 2.81299 21.243 2.89814C21.4486 2.98328 21.6243 3.12748 21.7479 3.31248C21.8715 3.49749 21.9375 3.715 21.9375 3.9375C21.9375 4.23587 21.819 4.52202 21.608 4.733C21.397 4.94397 21.1109 5.0625 20.8125 5.0625ZM24.1875 5.0625C23.965 5.0625 23.7475 4.99652 23.5625 4.8729C23.3775 4.74929 23.2333 4.57359 23.1481 4.36802C23.063 4.16245 23.0407 3.93625 23.0841 3.71802C23.1275 3.49979 23.2347 3.29934 23.392 3.142C23.5493 2.98467 23.7498 2.87752 23.968 2.83412C24.1863 2.79071 24.4125 2.81299 24.618 2.89814C24.8236 2.98328 24.9993 3.12748 25.1229 3.31248C25.2465 3.49749 25.3125 3.715 25.3125 3.9375C25.3125 4.23587 25.194 4.52202 24.983 4.733C24.772 4.94397 24.4859 5.0625 24.1875 5.0625ZM27.5625 5.0625C27.34 5.0625 27.1225 4.99652 26.9375 4.8729C26.7525 4.74929 26.6083 4.57359 26.5231 4.36802C26.438 4.16245 26.4157 3.93625 26.4591 3.71802C26.5025 3.49979 26.6097 3.29934 26.767 3.142C26.9243 2.98467 27.1248 2.87752 27.343 2.83412C27.5613 2.79071 27.7875 2.81299 27.993 2.89814C28.1986 2.98328 28.3743 3.12748 28.4979 3.31248C28.6215 3.49749 28.6875 3.715 28.6875 3.9375C28.6875 4.23587 28.569 4.52202 28.358 4.733C28.147 4.94397 27.8609 5.0625 27.5625 5.0625ZM5.625 7.3125V18.5625C5.625 18.7117 5.68426 18.8548 5.78975 18.9602C5.89524 19.0657 6.03832 19.125 6.1875 19.125H29.8125C29.9617 19.125 30.1048 19.0657 30.2102 18.9602C30.3157 18.8548 30.375 18.7117 30.375 18.5625V7.3125H5.625ZM8.90438 14.8781C8.98579 15.0021 9.01491 15.1533 8.98541 15.2987C8.95592 15.4441 8.87018 15.5719 8.74688 15.6544C8.65629 15.7178 8.54809 15.7513 8.4375 15.75C8.34485 15.7495 8.25376 15.7262 8.17231 15.682C8.09086 15.6378 8.02158 15.5743 7.97062 15.4969L6.84563 13.8094C6.78514 13.7175 6.75291 13.61 6.75291 13.5C6.75291 13.39 6.78514 13.2825 6.84563 13.1906L7.97062 11.5031C8.05854 11.394 8.18404 11.3216 8.32254 11.3001C8.46104 11.2787 8.60257 11.3097 8.7194 11.3871C8.83623 11.4645 8.91995 11.5828 8.95417 11.7187C8.98838 11.8546 8.97062 11.9984 8.90438 12.1219L7.9875 13.5L8.90438 14.8781ZM11.8125 11.4637L10.6875 15.8175C10.6556 15.9413 10.5825 16.0505 10.4803 16.1272C10.378 16.2038 10.2527 16.2434 10.125 16.2394C10.0783 16.2449 10.0311 16.2449 9.98438 16.2394C9.90929 16.2231 9.83835 16.1916 9.77591 16.1468C9.71347 16.102 9.66086 16.045 9.62133 15.9791C9.58181 15.9132 9.55619 15.8399 9.54607 15.7638C9.53595 15.6876 9.54154 15.6102 9.5625 15.5363L10.6875 11.1825C10.7248 11.0378 10.818 10.9138 10.9467 10.8379C11.0754 10.7619 11.229 10.7402 11.3737 10.7775C11.5185 10.8148 11.6424 10.9081 11.7184 11.0367C11.7943 11.1654 11.816 11.319 11.7788 11.4637H11.8125ZM14.5463 13.8094L13.4213 15.4969C13.3687 15.5767 13.2968 15.6418 13.2121 15.6861C13.1275 15.7304 13.033 15.7524 12.9375 15.75C12.8269 15.7513 12.7187 15.7178 12.6281 15.6544C12.5048 15.5719 12.4191 15.4441 12.3896 15.2987C12.3601 15.1533 12.3892 15.0021 12.4706 14.8781L13.3875 13.5L12.4706 12.1219C12.4215 12.0609 12.3857 11.9904 12.3654 11.9148C12.3451 11.8392 12.3408 11.7602 12.3528 11.6829C12.3648 11.6055 12.3928 11.5315 12.435 11.4656C12.4772 11.3997 12.5327 11.3434 12.598 11.3001C12.6632 11.2569 12.7368 11.2277 12.8139 11.2146C12.8911 11.2014 12.9701 11.2044 13.046 11.2235C13.1219 11.2426 13.193 11.2774 13.2547 11.3255C13.3164 11.3737 13.3674 11.4342 13.4044 11.5031L14.5294 13.1906C14.5899 13.2825 14.6221 13.39 14.6221 13.5C14.6221 13.61 14.5899 13.7175 14.5294 13.8094H14.5463ZM29.25 16.3125C29.25 16.7601 29.0722 17.1893 28.7557 17.5057C28.4393 17.8222 28.0101 18 27.5625 18H18C17.5524 18 17.1232 17.8222 16.8068 17.5057C16.4903 17.1893 16.3125 16.7601 16.3125 16.3125V10.6875C16.3125 10.2399 16.4903 9.81072 16.8068 9.49426C17.1232 9.17779 17.5524 9 18 9H27.5625C28.0101 9 28.4393 9.17779 28.7557 9.49426C29.0722 9.81072 29.25 10.2399 29.25 10.6875V16.3125Z" fill="#000000"/>
<path d="M33.1875 6.75V21.9375H2.81252V6.75C2.81065 6.20395 2.96971 5.66945 3.26983 5.21327C3.56996 4.75709 3.99783 4.39944 4.50002 4.185V18.5625C4.50002 19.0101 4.67781 19.4393 4.99427 19.7557C5.31074 20.0722 5.73996 20.25 6.18752 20.25H29.8125C30.2601 20.25 30.6893 20.0722 31.0058 19.7557C31.3222 19.4393 31.5 19.0101 31.5 18.5625V4.185C32.0022 4.39944 32.4301 4.75709 32.7302 5.21327C33.0303 5.66945 33.1894 6.20395 33.1875 6.75ZM23.0006 34.3125H12.9994L14.9288 28.6875H21.0713L23.0006 34.3125Z" fill="#000000"/>
<path d="M2.8125 23.0625V24.75C2.8125 25.4959 3.10882 26.2113 3.63626 26.7387C4.16371 27.2662 4.87908 27.5625 5.625 27.5625H30.375C31.1209 27.5625 31.8363 27.2662 32.3637 26.7387C32.8912 26.2113 33.1875 25.4959 33.1875 24.75V23.0625H2.8125ZM18.5625 25.875H17.4375C17.2883 25.875 17.1452 25.8157 17.0398 25.7102C16.9343 25.6048 16.875 25.4617 16.875 25.3125C16.875 25.1633 16.9343 25.0202 17.0398 24.9148C17.1452 24.8093 17.2883 24.75 17.4375 24.75H18.5625C18.7117 24.75 18.8548 24.8093 18.9602 24.9148C19.0657 25.0202 19.125 25.1633 19.125 25.3125C19.125 25.4617 19.0657 25.6048 18.9602 25.7102C18.8548 25.8157 18.7117 25.875 18.5625 25.875ZM21.4481 16.875H18.2306L19.6875 15.435C19.746 15.3746 19.8173 15.3281 19.8962 15.2989C19.975 15.2697 20.0594 15.2585 20.1431 15.2662C20.2261 15.2753 20.3059 15.3028 20.3769 15.3466C20.448 15.3903 20.5084 15.4494 20.5538 15.5194L21.4481 16.875ZM27.4331 16.875H22.7981L22.0781 15.7894L23.7656 13.7419C23.8179 13.6791 23.8832 13.6285 23.9571 13.5935C24.0309 13.5585 24.1114 13.5401 24.1931 13.5394C24.2739 13.5329 24.355 13.547 24.4288 13.5805C24.5026 13.614 24.5666 13.6656 24.615 13.7306L27.4331 16.875Z" fill="#000000"/>
<path d="M27.5625 10.125H18C17.8508 10.125 17.7077 10.1843 17.6023 10.2898C17.4968 10.3952 17.4375 10.5383 17.4375 10.6875V16.0819L18.8775 14.625C19.0487 14.4554 19.2543 14.3245 19.4804 14.241C19.7065 14.1575 19.9478 14.1234 20.1881 14.141C20.4285 14.1585 20.6623 14.2274 20.8738 14.3429C21.0853 14.4584 21.2697 14.6179 21.4144 14.8106L22.9163 13.0106C23.0729 12.8258 23.2676 12.6769 23.4869 12.574C23.7063 12.4711 23.9452 12.4167 24.1875 12.4144C24.4253 12.4141 24.6605 12.464 24.8776 12.561C25.0948 12.6579 25.289 12.7996 25.4475 12.9769L28.125 15.9581V10.6875C28.125 10.5383 28.0657 10.3952 27.9602 10.2898C27.8548 10.1843 27.7117 10.125 27.5625 10.125ZM20.25 13.5C20.0275 13.5 19.81 13.434 19.625 13.3104C19.44 13.1868 19.2958 13.0111 19.2106 12.8055C19.1255 12.6 19.1032 12.3738 19.1466 12.1555C19.19 11.9373 19.2972 11.7368 19.4545 11.5795C19.6118 11.4222 19.8123 11.315 20.0305 11.2716C20.2488 11.2282 20.475 11.2505 20.6805 11.3356C20.8861 11.4208 21.0618 11.565 21.1854 11.75C21.309 11.935 21.375 12.1525 21.375 12.375C21.375 12.6734 21.2565 12.9595 21.0455 13.1705C20.8345 13.3815 20.5484 13.5 20.25 13.5Z" fill="#000000"/>
</svg>