<svg xmlns="http://www.w3.org/2000/svg" width="36" height="36" viewBox="0 0 36 36" fill="none">
<g clip-path="url(#clip0_2641_47632)">
<path d="M0.749999 13.5L0.749999 22.5C0.749999 22.8978 0.908035 23.2794 1.18934 23.5607C1.47064 23.842 1.85217 24 2.25 24L8.25 24C8.64782 24 9.02935 23.842 9.31066 23.5607C9.59196 23.2794 9.75 22.8978 9.75 22.5L9.75 13.5C9.75 13.1022 9.59196 12.7206 9.31066 12.4393C9.02935 12.158 8.64782 12 8.25 12L2.25 12C1.85217 12 1.47064 12.158 1.18934 12.4393C0.908034 12.7206 0.749999 13.1022 0.749999 13.5ZM7.5 16.5L7.5 21C7.5 21.1989 7.42098 21.3897 7.28033 21.5303C7.13968 21.671 6.94891 21.75 6.75 21.75C6.55109 21.75 6.36032 21.671 6.21967 21.5303C6.07902 21.3897 6 21.1989 6 21L6 16.5C6 16.3011 6.07902 16.1103 6.21967 15.9697C6.36032 15.829 6.55109 15.75 6.75 15.75C6.94891 15.75 7.13968 15.829 7.28033 15.9697C7.42098 16.1103 7.5 16.3011 7.5 16.5ZM4.5 15L4.5 21C4.5 21.1989 4.42098 21.3897 4.28033 21.5303C4.13968 21.671 3.94891 21.75 3.75 21.75C3.55109 21.75 3.36032 21.671 3.21967 21.5303C3.07902 21.3897 3 21.1989 3 21L3 15C3 14.8011 3.07902 14.6103 3.21967 14.4697C3.36032 14.329 3.55109 14.25 3.75 14.25C3.94891 14.25 4.13968 14.329 4.28033 14.4697C4.42098 14.6103 4.5 14.8011 4.5 15ZM13.5 13.5L13.5 22.5C13.5 22.8978 13.658 23.2794 13.9393 23.5607C14.2206 23.842 14.6022 24 15 24L21 24C21.3978 24 21.7794 23.842 22.0607 23.5607C22.342 23.2794 22.5 22.8978 22.5 22.5L22.5 13.5C22.5 13.1022 22.342 12.7206 22.0607 12.4393C21.7794 12.158 21.3978 12 21 12L15 12C14.6022 12 14.2206 12.158 13.9393 12.4393C13.658 12.7206 13.5 13.1022 13.5 13.5ZM20.25 16.5L20.25 21C20.25 21.1989 20.171 21.3897 20.0303 21.5303C19.8897 21.671 19.6989 21.75 19.5 21.75C19.3011 21.75 19.1103 21.671 18.9697 21.5303C18.829 21.3897 18.75 21.1989 18.75 21L18.75 16.5C18.75 16.3011 18.829 16.1103 18.9697 15.9697C19.1103 15.829 19.3011 15.75 19.5 15.75C19.6989 15.75 19.8897 15.829 20.0303 15.9697C20.171 16.1103 20.25 16.3011 20.25 16.5ZM17.25 15L17.25 21C17.25 21.1989 17.171 21.3897 17.0303 21.5303C16.8897 21.671 16.6989 21.75 16.5 21.75C16.3011 21.75 16.1103 21.671 15.9697 21.5303C15.829 21.3897 15.75 21.1989 15.75 21L15.75 15C15.75 14.8011 15.829 14.6103 15.9697 14.4697C16.1103 14.329 16.3011 14.25 16.5 14.25C16.6989 14.25 16.8897 14.329 17.0303 14.4697C17.171 14.6103 17.25 14.8011 17.25 15ZM26.25 13.5L26.25 22.5C26.25 22.8978 26.408 23.2794 26.6893 23.5607C26.9706 23.842 27.3522 24 27.75 24L33.75 24C34.1478 24 34.5294 23.842 34.8107 23.5607C35.092 23.2794 35.25 22.8978 35.25 22.5L35.25 13.5C35.25 13.1022 35.092 12.7206 34.8107 12.4393C34.5294 12.158 34.1478 12 33.75 12L27.75 12C27.3522 12 26.9706 12.158 26.6893 12.4393C26.408 12.7206 26.25 13.1022 26.25 13.5ZM33 16.5L33 21C33 21.1989 32.921 21.3897 32.7803 21.5303C32.6397 21.671 32.4489 21.75 32.25 21.75C32.0511 21.75 31.8603 21.671 31.7197 21.5303C31.579 21.3897 31.5 21.1989 31.5 21L31.5 16.5C31.5 16.3011 31.579 16.1103 31.7197 15.9697C31.8603 15.829 32.0511 15.75 32.25 15.75C32.4489 15.75 32.6397 15.829 32.7803 15.9697C32.921 16.1103 33 16.3011 33 16.5ZM30 15L30 21C30 21.1989 29.921 21.3897 29.7803 21.5303C29.6397 21.671 29.4489 21.75 29.25 21.75C29.0511 21.75 28.8603 21.671 28.7197 21.5303C28.579 21.3897 28.5 21.1989 28.5 21L28.5 15C28.5 14.8011 28.579 14.6103 28.7197 14.4697C28.8603 14.329 29.0511 14.25 29.25 14.25C29.4489 14.25 29.6397 14.329 29.7803 14.4697C29.921 14.6103 30 14.8011 30 15ZM4.5 9C4.5 9.19891 4.57902 9.38968 4.71967 9.53033C4.86032 9.67098 5.05109 9.75 5.25 9.75C5.44891 9.75 5.63968 9.67098 5.78033 9.53033C5.92098 9.38968 6 9.19891 6 9C6 1.89 15.1275 0.989997 16.995 6.945C16.8482 6.82502 16.6614 6.76508 16.4722 6.77726C16.283 6.78944 16.1054 6.87282 15.9752 7.01063C15.845 7.14845 15.7718 7.33046 15.7704 7.52005C15.769 7.70964 15.8394 7.89274 15.9675 8.0325C17.415 9.4725 17.5125 9.6075 17.715 9.69C17.8516 9.74743 18.0021 9.76313 18.1476 9.7351C18.2931 9.70706 18.427 9.63657 18.5325 9.5325C20.1675 7.8975 20.25 7.905 20.25 7.5C20.2509 7.35103 20.2073 7.20518 20.125 7.08104C20.0426 6.9569 19.9252 6.8601 19.7876 6.80297C19.65 6.74585 19.4985 6.73099 19.3525 6.76029C19.2064 6.78959 19.0724 6.86173 18.9675 6.9675L18.63 7.3125C18.3211 5.67995 17.4525 4.20624 16.1738 3.14526C14.8952 2.08427 13.2865 1.50244 11.625 1.5C7.98 1.5 4.5 4.29 4.5 9ZM18.75 27C18.75 26.8011 18.671 26.6103 18.5303 26.4697C18.3897 26.329 18.1989 26.25 18 26.25C17.8011 26.25 17.6103 26.329 17.4697 26.4697C17.329 26.6103 17.25 26.8011 17.25 27C17.25 31.755 20.775 34.5 24.375 34.5C26.0365 34.4976 27.6452 33.9157 28.9238 32.8547C30.2025 31.7938 31.0711 30.32 31.38 28.6875L31.7175 29.0325C31.8587 29.1737 32.0503 29.2531 32.25 29.2531C32.4497 29.2531 32.6413 29.1737 32.7825 29.0325C32.9237 28.8913 33.0031 28.6997 33.0031 28.5C33.0031 28.3003 32.9237 28.1087 32.7825 27.9675C30.465 25.6575 31.0275 25.6575 28.7175 27.9675C28.5894 28.1073 28.519 28.2904 28.5204 28.4799C28.5218 28.6695 28.595 28.8516 28.7252 28.9894C28.8554 29.1272 29.033 29.2106 29.2222 29.2227C29.4114 29.2349 29.5982 29.175 29.745 29.055C29.3328 30.37 28.4529 31.4883 27.2717 32.1982C26.0906 32.908 24.6901 33.1603 23.3355 32.9071C21.9809 32.6539 20.7661 31.9129 19.921 30.8243C19.076 29.7357 18.6594 28.3751 18.75 27ZM28.7175 5.0325L31.1925 7.5L30.2175 8.4675C30.1476 8.53743 30.0921 8.62044 30.0543 8.71181C30.0164 8.80318 29.9969 8.9011 29.9969 9C29.9969 9.09889 30.0164 9.19682 30.0543 9.28819C30.0921 9.37955 30.1476 9.46257 30.2175 9.5325C30.2874 9.60243 30.3704 9.6579 30.4618 9.69574C30.5532 9.73359 30.6511 9.75307 30.75 9.75307C30.8489 9.75307 30.9468 9.73359 31.0382 9.69574C31.1296 9.6579 31.2126 9.60243 31.2825 9.5325C33.7425 7.065 33.8325 8.0325 29.7825 3.9675C29.6413 3.82627 29.4497 3.74693 29.25 3.74693C29.0503 3.74693 28.8587 3.82627 28.7175 3.9675C28.5763 4.10873 28.4969 4.30027 28.4969 4.5C28.4969 4.69972 28.5763 4.89127 28.7175 5.0325ZM5.25 32.25C5.25 28.2825 5.1525 28.7175 5.4675 29.0325C5.5724 29.1383 5.70643 29.2104 5.85249 29.2397C5.99855 29.269 6.15003 29.2542 6.28761 29.197C6.42519 29.1399 6.54265 29.0431 6.625 28.919C6.70735 28.7948 6.75087 28.649 6.75 28.5C6.75 28.095 6.6375 28.0725 5.0325 26.4675C4.89265 26.3323 4.70575 26.2568 4.51125 26.2568C4.31675 26.2568 4.12985 26.3323 3.99 26.4675L2.49 27.9675C2.37385 28.1104 2.31436 28.2911 2.32286 28.4751C2.33137 28.6591 2.40727 28.8335 2.5361 28.9651C2.66494 29.0967 2.8377 29.1763 3.02145 29.1888C3.20521 29.2012 3.38712 29.1456 3.5325 29.0325C3.825 28.7325 3.75 28.1175 3.75 32.25C3.75 32.4489 3.82902 32.6397 3.96967 32.7803C4.11032 32.921 4.30109 33 4.5 33C4.69891 33 4.88968 32.921 5.03033 32.7803C5.17098 32.6397 5.25 32.4489 5.25 32.25Z" fill="#000000"/>
</g>
<defs fill="#000000">
<clipPath id="clip0_2641_47632" fill="#000000">
<rect width="36" height="36" fill="#ffffff" transform="translate(0 36) rotate(-90)"/>
</clipPath>
</defs>
</svg>